<svg width="32" height="32" viewBox="0 0 32 32" fill="none" xmlns="http://www.w3.org/2000/svg">
<mask id="mask0_84_186" style="mask-type:alpha" maskUnits="userSpaceOnUse" x="0" y="0" width="32" height="32">
<rect width="32" height="32" fill="#D9D9D9"/>
</mask>
<g mask="url(#mask0_84_186)">
<path d="M8.03071 23.0564C9.16404 22.2155 10.3987 21.5514 11.7347 21.064C13.0705 20.5769 14.4923 20.3334 16 20.3334C17.5078 20.3334 18.9296 20.5769 20.2654 21.064C21.6014 21.5514 22.836 22.2155 23.9694 23.0564C24.7983 22.1453 25.455 21.0906 25.9397 19.8924C26.4244 18.6942 26.6667 17.3967 26.6667 16C26.6667 13.0445 25.6278 10.5278 23.55 8.45004C21.4723 6.37226 18.9556 5.33337 16 5.33337C13.0445 5.33337 10.5278 6.37226 8.45004 8.45004C6.37226 10.5278 5.33337 13.0445 5.33337 16C5.33337 17.3967 5.57571 18.6942 6.06037 19.8924C6.54504 21.0906 7.20182 22.1453 8.03071 23.0564ZM16.0004 17C14.783 17 13.7565 16.5823 12.9207 15.7467C12.0847 14.9109 11.6667 13.8844 11.6667 12.667C11.6667 11.4497 12.0845 10.4232 12.92 9.58737C13.7558 8.75137 14.7824 8.33337 15.9997 8.33337C17.217 8.33337 18.2436 8.75115 19.0794 9.58671C19.9154 10.4225 20.3334 11.449 20.3334 12.6664C20.3334 13.8837 19.9156 14.9103 19.08 15.746C18.2443 16.582 17.2177 17 16.0004 17ZM16 28.6667C14.2412 28.6667 12.5912 28.3359 11.05 27.6744C9.50893 27.0128 8.16837 26.1119 7.02837 24.9717C5.88815 23.8317 4.98726 22.4912 4.32571 20.95C3.66415 19.4089 3.33337 17.7589 3.33337 16C3.33337 14.2412 3.66415 12.5912 4.32571 11.05C4.98726 9.50893 5.88815 8.16837 7.02837 7.02837C8.16837 5.88815 9.50893 4.98726 11.05 4.32571C12.5912 3.66415 14.2412 3.33337 16 3.33337C17.7589 3.33337 19.4089 3.66415 20.95 4.32571C22.4912 4.98726 23.8317 5.88815 24.9717 7.02837C26.1119 8.16837 27.0128 9.50893 27.6744 11.05C28.3359 12.5912 28.6667 14.2412 28.6667 16C28.6667 17.7589 28.3359 19.4089 27.6744 20.95C27.0128 22.4912 26.1119 23.8317 24.9717 24.9717C23.8317 26.1119 22.4912 27.0128 20.95 27.6744C19.4089 28.3359 17.7589 28.6667 16 28.6667ZM16 26.6667C17.2034 26.6667 18.3636 26.4732 19.4807 26.086C20.5978 25.6987 21.5897 25.1573 22.4564 24.4617C21.5897 23.7915 20.6107 23.2693 19.5194 22.895C18.4278 22.5206 17.2547 22.3334 16 22.3334C14.7454 22.3334 13.5702 22.5184 12.4744 22.8884C11.3786 23.2586 10.4017 23.783 9.54371 24.4617C10.4104 25.1573 11.4023 25.6987 12.5194 26.086C13.6365 26.4732 14.7967 26.6667 16 26.6667ZM16 15C16.6634 15 17.218 14.7769 17.664 14.3307C18.1103 13.8847 18.3334 13.33 18.3334 12.6667C18.3334 12.0034 18.1103 11.4487 17.664 11.0027C17.218 10.5565 16.6634 10.3334 16 10.3334C15.3367 10.3334 14.782 10.5565 14.336 11.0027C13.8898 11.4487 13.6667 12.0034 13.6667 12.6667C13.6667 13.33 13.8898 13.8847 14.336 14.3307C14.782 14.7769 15.3367 15 16 15Z" fill="white"/>
</g>
</svg>
