<svg width="24" height="24" viewBox="0 0 24 24" fill="none" xmlns="http://www.w3.org/2000/svg">
<mask id="mask0_95_1059" style="mask-type:alpha" maskUnits="userSpaceOnUse" x="0" y="0" width="24" height="24">
<rect y="24" width="24" height="24" transform="rotate(-90 0 24)" fill="#D9D9D9"/>
</mask>
<g mask="url(#mask0_95_1059)">
<path d="M21.9 12.0002C21.9 12.1335 21.875 12.2585 21.825 12.3752C21.775 12.4919 21.7 12.6002 21.6 12.7002L16.025 18.3002C15.8416 18.4835 15.6083 18.5752 15.325 18.5752C15.0416 18.5752 14.8 18.4835 14.6 18.3002C14.4 18.1002 14.3 17.8627 14.3 17.5877C14.3 17.3127 14.4 17.0752 14.6 16.8752L18.5 13.0002H12.325C12.0416 13.0002 11.8041 12.9044 11.6125 12.7127C11.4208 12.521 11.325 12.2835 11.325 12.0002C11.325 11.7169 11.4208 11.4794 11.6125 11.2877C11.8041 11.096 12.0416 11.0002 12.325 11.0002H18.5L14.6 7.10019C14.4166 6.91686 14.325 6.68769 14.325 6.41269C14.325 6.13769 14.425 5.90019 14.625 5.70019C14.8083 5.51686 15.0416 5.42519 15.325 5.42519C15.6083 5.42519 15.8416 5.51686 16.025 5.70019L21.6 11.3002C21.7 11.4002 21.775 11.5085 21.825 11.6252C21.875 11.7419 21.9 11.8669 21.9 12.0002ZM9.32495 12.0002C9.32495 12.2835 9.22912 12.521 9.03745 12.7127C8.84578 12.9044 8.60828 13.0002 8.32495 13.0002H7.32495C7.04162 13.0002 6.80412 12.9044 6.61245 12.7127C6.42078 12.521 6.32495 12.2835 6.32495 12.0002C6.32495 11.7169 6.42078 11.4794 6.61245 11.2877C6.80412 11.096 7.04162 11.0002 7.32495 11.0002H8.32495C8.60828 11.0002 8.84578 11.096 9.03745 11.2877C9.22912 11.4794 9.32495 11.7169 9.32495 12.0002ZM4.32495 12.0002C4.32495 12.2835 4.22912 12.521 4.03745 12.7127C3.84578 12.9044 3.60828 13.0002 3.32495 13.0002C3.04162 13.0002 2.80412 12.9044 2.61245 12.7127C2.42078 12.521 2.32495 12.2835 2.32495 12.0002C2.32495 11.7169 2.42078 11.4794 2.61245 11.2877C2.80412 11.096 3.04162 11.0002 3.32495 11.0002C3.60828 11.0002 3.84578 11.096 4.03745 11.2877C4.22912 11.4794 4.32495 11.7169 4.32495 12.0002Z" fill="white"/>
</g>
</svg>
