<svg width="24" height="24" viewBox="0 0 24 24" fill="none" xmlns="http://www.w3.org/2000/svg">
<mask id="mask0_95_1063" style="mask-type:alpha" maskUnits="userSpaceOnUse" x="0" y="0" width="24" height="24">
<rect x="24" width="24" height="24" transform="rotate(90 24 0)" fill="#D9D9D9"/>
</mask>
<g mask="url(#mask0_95_1063)">
<path d="M2.10005 11.9998C2.10005 11.8665 2.12505 11.7415 2.17505 11.6248C2.22505 11.5081 2.30005 11.3998 2.40005 11.2998L7.97505 5.6998C8.15838 5.51647 8.39172 5.4248 8.67505 5.4248C8.95838 5.4248 9.20005 5.51647 9.40005 5.6998C9.60005 5.8998 9.70005 6.1373 9.70005 6.4123C9.70005 6.6873 9.60005 6.9248 9.40005 7.1248L5.50005 10.9998H11.675C11.9584 10.9998 12.1959 11.0956 12.3875 11.2873C12.5792 11.479 12.675 11.7165 12.675 11.9998C12.675 12.2831 12.5792 12.5206 12.3875 12.7123C12.1959 12.904 11.9584 12.9998 11.675 12.9998H5.50005L9.40005 16.8998C9.58338 17.0831 9.67505 17.3123 9.67505 17.5873C9.67505 17.8623 9.57505 18.0998 9.37505 18.2998C9.19172 18.4831 8.95838 18.5748 8.67505 18.5748C8.39172 18.5748 8.15838 18.4831 7.97505 18.2998L2.40005 12.6998C2.30005 12.5998 2.22505 12.4915 2.17505 12.3748C2.12505 12.2581 2.10005 12.1331 2.10005 11.9998ZM14.675 11.9998C14.675 11.7165 14.7709 11.479 14.9625 11.2873C15.1542 11.0956 15.3917 10.9998 15.675 10.9998H16.675C16.9584 10.9998 17.1959 11.0956 17.3875 11.2873C17.5792 11.479 17.675 11.7165 17.675 11.9998C17.675 12.2831 17.5792 12.5206 17.3875 12.7123C17.1959 12.904 16.9584 12.9998 16.675 12.9998H15.675C15.3917 12.9998 15.1542 12.904 14.9625 12.7123C14.7709 12.5206 14.675 12.2831 14.675 11.9998ZM19.675 11.9998C19.675 11.7165 19.7709 11.479 19.9625 11.2873C20.1542 11.0956 20.3917 10.9998 20.675 10.9998C20.9584 10.9998 21.1959 11.0956 21.3875 11.2873C21.5792 11.479 21.675 11.7165 21.675 11.9998C21.675 12.2831 21.5792 12.5206 21.3875 12.7123C21.1959 12.904 20.9584 12.9998 20.675 12.9998C20.3917 12.9998 20.1542 12.904 19.9625 12.7123C19.7709 12.5206 19.675 12.2831 19.675 11.9998Z" fill="white"/>
</g>
</svg>
