<!-- icon666.com - MILLIONS OF FREE VECTOR ICONS --><svg version="1.1" id="Capa_1" xmlns="http://www.w3.org/2000/svg" xmlns:xlink="http://www.w3.org/1999/xlink" x="0px" y="0px" viewBox="0 0 512 512" style="enable-background:new 0 0 512 512;" xml:space="preserve"><g><g><path d="M448.469,95.822H66.776c-5.997,0-11.434,3.526-13.881,9s-1.448,11.877,2.552,16.345 c9.411,10.515,14.595,24.075,14.595,38.184c0,11.941-3.727,23.479-10.574,33.12h66.108v-29.389 c0-8.397,6.808-15.205,15.205-15.205h73.659c8.397,0,15.205,6.808,15.205,15.205v29.389h272.996 c5.925-9.65,9.358-20.988,9.358-33.12C511.999,124.32,483.5,95.822,448.469,95.822z" fill="#000000" style="fill: rgb(255, 255, 255);"></path></g></g><g><g><path d="M441.957,256.001c0-11.941,3.727-23.479,10.573-33.119H229.645v38.863c0,5.376-2.84,10.353-7.469,13.089 c-4.627,2.736-10.36,2.823-15.068,0.231l-29.497-16.237l-29.498,16.237c-2.285,1.258-4.81,1.884-7.332,1.884 c-2.678,0-5.352-0.707-7.736-2.116c-4.628-2.736-7.469-7.713-7.469-13.089v-38.863H9.358C3.433,232.531,0,243.869,0,256.001 c0,12.132,3.433,23.47,9.358,33.12h443.173C445.684,279.48,441.957,267.942,441.957,256.001z" fill="#000000" style="fill: rgb(255, 255, 255);"></path></g></g><g><g><path d="M502.642,319.53H59.469v0.001c6.846,9.641,10.573,21.179,10.573,33.119c0,14.109-5.183,27.67-14.595,38.183 c-3.999,4.468-4.999,10.87-2.552,16.345c2.447,5.475,7.884,9,13.881,9H448.47c35.031,0,63.53-28.499,63.53-63.53 C512,340.516,508.567,329.18,502.642,319.53z" fill="#000000" style="fill: rgb(255, 255, 255);"></path></g></g><g><g><g><polygon points="155.987,236.019 155.987,236.018 155.986,236.019 " fill="#000000" style="fill: rgb(255, 255, 255);"></polygon><path d="M155.987,178.286v57.732l14.293-7.867c4.566-2.513,10.1-2.513,14.664,0l14.292,7.867v-57.732H155.987z" fill="#000000" style="fill: rgb(255, 255, 255);"></path></g></g></g></svg>