<svg width="24" height="24" viewBox="0 0 24 24" fill="none" xmlns="http://www.w3.org/2000/svg">
<path d="M11.64 21.672C11.736 21.784 11.856 21.84 12 21.84C12.144 21.84 12.264 21.784 12.36 21.672L16.92 16.944C17.016 16.848 17.064 16.728 17.064 16.584V7.41603C17.064 7.27203 17.016 7.15203 16.92 7.05603L12.36 2.32803C12.264 2.21603 12.144 2.16003 12 2.16003C11.856 2.16003 11.736 2.21603 11.64 2.32803L7.08004 7.05603C6.98404 7.15203 6.93604 7.27203 6.93604 7.41603V16.584C6.93604 16.728 6.98404 16.848 7.08004 16.944L11.64 21.672ZM12.12 7.15203L13.728 9.52803C13.76 9.57603 13.776 9.63203 13.776 9.69603V14.304C13.776 14.368 13.76 14.424 13.728 14.472L12.12 16.848C12.088 16.912 12.048 16.944 12 16.944C11.952 16.944 11.912 16.912 11.88 16.848L10.272 14.472C10.24 14.424 10.224 14.368 10.224 14.304V9.69603C10.224 9.63203 10.24 9.57603 10.272 9.52803L11.88 7.15203C11.912 7.08803 11.952 7.05603 12 7.05603C12.048 7.05603 12.088 7.08803 12.12 7.15203ZM8.13604 7.48803L11.712 3.43203C11.76 3.38403 11.82 3.37203 11.892 3.39603C11.964 3.42003 12 3.47203 12 3.55203V4.77603C12 4.82403 11.992 4.86403 11.976 4.89603L9.24004 8.30403C9.20804 8.33603 9.17204 8.35603 9.13204 8.36403C9.09204 8.37203 9.05604 8.36003 9.02404 8.32803L8.16004 7.72803C8.12804 7.71203 8.10804 7.68003 8.10004 7.63203C8.09204 7.58403 8.10404 7.53603 8.13604 7.48803ZM7.84804 8.71203C7.84804 8.64803 7.87204 8.60403 7.92004 8.58003C7.96804 8.55603 8.02404 8.56003 8.08804 8.59203L8.97604 9.19203C9.02404 9.22403 9.04804 9.27203 9.04804 9.33603V14.688C9.04804 14.736 9.03204 14.776 9.00004 14.808L8.08804 15.6C8.04004 15.648 7.98804 15.656 7.93204 15.624C7.87604 15.592 7.84804 15.544 7.84804 15.48V8.71203Z" fill="#F07B3C"/>
</svg>
