<svg xmlns="http://www.w3.org/2000/svg" width="64" height="64" fill="none" viewBox="0 0 64 64">
  <mask id="a" width="64" height="64" x="0" y="0" maskUnits="userSpaceOnUse" style="mask-type:alpha">
    <path fill="#D9D9D9" d="M0 0h64v64H0z"/>
  </mask>
  <g mask="url(#a)">
    <path fill="#fff" d="M21.565 6.36c.567 0 1.042.19 1.425.574.383.384.574.859.574 1.425v21.334c0 .566-.192 1.04-.575 1.424-.384.383-.859.575-1.426.575s-1.042-.192-1.424-.575c-.383-.383-.575-.858-.575-1.424V8.359c0-.566.192-1.041.575-1.425.384-.383.86-.575 1.426-.575ZM31.77 3.692c.567 0 1.042.191 1.425.574.383.384.574.859.574 1.426v24c0 .566-.191 1.04-.575 1.424-.384.383-.859.575-1.426.575s-1.041-.192-1.425-.575c-.382-.383-.574-.858-.574-1.424v-24c0-.567.192-1.042.576-1.426.383-.383.858-.574 1.425-.574ZM40 42.918V11.026c0-.567.192-1.042.575-1.425.384-.383.859-.575 1.426-.575s1.042.192 1.424.575c.384.383.575.858.575 1.425v29.553l-4 2.339Zm-26.667-1.226v8.718c.069 1.638.68 3.039 1.835 4.203 1.155 1.164 2.544 1.746 4.165 1.746H35.8c.449 0 .87-.09 1.262-.272a4.604 4.604 0 0 0 1.092-.708l13.723-13.774-.231-.18a.818.818 0 0 0-.461-.166.777.777 0 0 0-.462.115l-16.195 9.477a4.61 4.61 0 0 1-3.374.549c-1.197-.25-2.161-.857-2.893-1.82l-5.928-7.888h-9Zm6 18.667c-2.762 0-5.12-.976-7.072-2.928s-2.928-4.31-2.928-7.072V37.693h12.59c.764 0 1.486.17 2.169.512a4.619 4.619 0 0 1 1.687 1.416l5.606 7.487c.136.17.303.277.5.32a.808.808 0 0 0 .576-.09L44 40.58l6.897-4.004a4.787 4.787 0 0 1 2.71-.636c.96.058 1.832.372 2.618.943.92.7 1.417 1.621 1.49 2.763.074 1.142-.293 2.117-1.1 2.924L40.98 58.205a7.295 7.295 0 0 1-2.382 1.605 7.262 7.262 0 0 1-2.805.549h-16.46Zm-6-22.666h-4v-24c0-.568.192-1.043.576-1.426.383-.383.858-.574 1.425-.574.567 0 1.042.191 1.425.574.383.384.574.859.574 1.426v24Z"/>
  </g>
</svg>
