<svg xmlns="http://www.w3.org/2000/svg" width="64" height="64" fill="none" viewBox="0 0 64 64">
  <mask id="a" width="64" height="64" x="0" y="0" maskUnits="userSpaceOnUse" style="mask-type:alpha">
    <path fill="#D9D9D9" d="M0 0h64v64H0z"/>
  </mask>
  <g mask="url(#a)">
    <path fill="#fff" d="M21.077 53.333h21.846v-8c0-3.036-1.061-5.632-3.184-7.79-2.123-2.157-4.703-3.236-7.739-3.236-3.036 0-5.616 1.08-7.739 3.24-2.123 2.159-3.184 4.754-3.184 7.786v8ZM32 29.693c3.036 0 5.616-1.08 7.739-3.24 2.123-2.159 3.184-4.754 3.184-7.786v-8H21.077v8c0 3.036 1.061 5.632 3.184 7.79 2.123 2.157 4.703 3.236 7.739 3.236Zm-18 27.64c-.567 0-1.042-.191-1.425-.575-.383-.384-.575-.859-.575-1.425 0-.567.192-1.042.575-1.425.383-.383.858-.575 1.425-.575h3.077v-8c0-3.002.822-5.734 2.464-8.197 1.643-2.464 3.82-4.176 6.531-5.136-2.711-.978-4.888-2.694-6.53-5.149-1.643-2.454-2.465-5.183-2.465-8.184v-8H14c-.567 0-1.042-.192-1.425-.576-.383-.383-.575-.858-.575-1.425 0-.567.192-1.042.575-1.425.383-.383.858-.574 1.425-.574h36c.567 0 1.042.191 1.425.575.383.384.575.859.575 1.425 0 .567-.192 1.042-.575 1.425-.383.383-.858.575-1.425.575h-3.077v8c0 3.001-.822 5.73-2.464 8.184-1.643 2.455-3.82 4.171-6.531 5.149 2.711.96 4.888 2.672 6.53 5.136 1.643 2.463 2.465 5.195 2.465 8.197v8H50c.567 0 1.042.192 1.425.576.383.383.575.858.575 1.425 0 .567-.192 1.042-.575 1.425-.383.383-.858.574-1.425.574H14Z"/>
  </g>
</svg>
