<svg width="16" height="16" viewBox="0 0 16 16" fill="none" xmlns="http://www.w3.org/2000/svg">
<mask id="mask0_95_1176" style="mask-type:alpha" maskUnits="userSpaceOnUse" x="0" y="0" width="16" height="16">
<rect width="16" height="16" fill="#D9D9D9"/>
</mask>
<g mask="url(#mask0_95_1176)">
<path d="M5.51686 4.86686L7.21686 2.58353C7.31464 2.45164 7.43075 2.35475 7.56519 2.29286C7.69964 2.23108 7.84464 2.2002 8.0002 2.2002C8.15575 2.2002 8.30075 2.23108 8.43519 2.29286C8.56964 2.35475 8.68575 2.45164 8.78353 2.58353L10.4835 4.86686L13.1169 5.76686C13.3391 5.84464 13.5085 5.97053 13.6252 6.14453C13.7419 6.31853 13.8002 6.51075 13.8002 6.7212C13.8002 6.81831 13.7859 6.91447 13.7574 7.0097C13.7289 7.10492 13.6821 7.1962 13.6169 7.28353L11.8835 9.60019L11.9502 12.1002C11.9613 12.3906 11.8649 12.6355 11.661 12.8347C11.4571 13.0339 11.2202 13.1335 10.9502 13.1335C10.9613 13.1335 10.8669 13.1224 10.6669 13.1002L8.0002 12.3002L5.33353 13.1002C5.27797 13.1224 5.22664 13.1335 5.17953 13.1335H5.0502C4.77242 13.1335 4.53353 13.0339 4.33353 12.8347C4.13353 12.6355 4.03908 12.3906 4.0502 12.1002L4.11686 9.58353L2.38353 7.28353C2.31831 7.19508 2.27147 7.10264 2.24303 7.0062C2.21447 6.90975 2.2002 6.81331 2.2002 6.71686C2.2002 6.50764 2.2617 6.31303 2.3847 6.13303C2.50781 5.95314 2.67964 5.82553 2.9002 5.7502L5.51686 4.86686Z" fill="#E9BB3C"/>
</g>
</svg>
