<svg width="12" height="12" viewBox="0 0 12 12" fill="none" xmlns="http://www.w3.org/2000/svg">
<mask id="mask0_84_89" style="mask-type:alpha" maskUnits="userSpaceOnUse" x="0" y="0" width="12" height="12">
<rect width="12" height="12" fill="#D9D9D9"/>
</mask>
<g mask="url(#mask0_84_89)">
<path d="M2.5 11C2.225 11 1.98958 10.9021 1.79375 10.7063C1.59792 10.5104 1.5 10.275 1.5 10V4C1.5 3.725 1.59792 3.48958 1.79375 3.29375C1.98958 3.09792 2.225 3 2.5 3H3.5C3.5 2.30833 3.74375 1.71875 4.23125 1.23125C4.71875 0.74375 5.30833 0.5 6 0.5C6.69167 0.5 7.28125 0.74375 7.76875 1.23125C8.25625 1.71875 8.5 2.30833 8.5 3H9.5C9.775 3 10.0104 3.09792 10.2063 3.29375C10.4021 3.48958 10.5 3.725 10.5 4V10C10.5 10.275 10.4021 10.5104 10.2063 10.7063C10.0104 10.9021 9.775 11 9.5 11H2.5ZM2.5 10H9.5V4H2.5V10ZM4.5 3H7.5C7.5 2.58333 7.35417 2.22917 7.0625 1.9375C6.77083 1.64583 6.41667 1.5 6 1.5C5.58333 1.5 5.22917 1.64583 4.9375 1.9375C4.64583 2.22917 4.5 2.58333 4.5 3ZM5.9875 7C6.60417 7 7.1625 6.79583 7.6625 6.3875C8.1625 5.97917 8.40833 5.52083 8.4 5.0125C8.4 4.87083 8.35417 4.75 8.2625 4.65C8.17083 4.55 8.05417 4.5 7.9125 4.5C7.79583 4.5 7.69167 4.5375 7.6 4.6125C7.50833 4.6875 7.44167 4.8 7.4 4.95C7.30833 5.26667 7.12917 5.52083 6.8625 5.7125C6.59583 5.90417 6.30417 6 5.9875 6C5.67083 6 5.37708 5.90417 5.10625 5.7125C4.83542 5.52083 4.65833 5.26667 4.575 4.95C4.53333 4.79167 4.47083 4.67708 4.3875 4.60625C4.30417 4.53542 4.20417 4.5 4.0875 4.5C3.94583 4.5 3.82708 4.55 3.73125 4.65C3.63542 4.75 3.5875 4.87083 3.5875 5.0125C3.5875 5.52083 3.83333 5.97917 4.325 6.3875C4.81667 6.79583 5.37083 7 5.9875 7Z" fill="white"/>
</g>
</svg>
