<!-- icon666.com - MILLIONS OF FREE VECTOR ICONS --><svg version="1.1" id="Layer_1" xmlns="http://www.w3.org/2000/svg" xmlns:xlink="http://www.w3.org/1999/xlink" x="0px" y="0px" viewBox="0 0 512 512" style="enable-background:new 0 0 512 512;" xml:space="preserve"><g><g><path d="M421,195c0-25.165-4.79-41.466-30.238-182.661C389.475,5.197,383.258,0,376,0c-10.392,0-229.44,0-240,0 c-7.262,0-13.48,5.202-14.764,12.349C98.364,139.73,91,167.481,91,195c0,73.936,49.775,138.823,120,158.744v69.763 c-34.191,6.969-60,37.275-60,73.493c0,8.284,6.716,15,15,15h180c8.284,0,15-6.716,15-15c0-36.219-25.809-66.524-60-73.493v-69.763 C371.225,333.823,421,268.936,421,195z M286,452c19.556,0,36.239,12.539,42.43,30H183.57c6.191-17.461,22.874-30,42.43-30 c8.284,0,15-6.716,15-15v-95.032c0-7.129-5.018-13.274-12.004-14.698C166.419,314.513,121,258.885,121,195 c0-23.198,6.956-51.115,27.54-165h86.649l-23.419,70.257C208.538,109.954,215.765,120,226,120h69.188l-23.419,70.257 c-2.62,7.859,1.628,16.354,9.487,18.974c7.861,2.62,16.355-1.629,18.974-9.487l30-90C333.462,100.046,326.235,90,316,90h-69.188 l20-60h96.655C386.43,156.87,391,173.929,391,195c0,63.885-45.419,119.513-107.996,132.27 c-6.986,1.424-12.004,7.568-12.004,14.698V437C271,445.284,277.716,452,286,452z" fill="#000000" style="fill: rgb(0, 0, 0);"></path></g></g></svg>