<svg width="12" height="12" viewBox="0 0 12 12" fill="none" xmlns="http://www.w3.org/2000/svg">
<mask id="mask0_84_94" style="mask-type:alpha" maskUnits="userSpaceOnUse" x="0" y="0" width="12" height="12">
<rect width="12" height="12" fill="#D9D9D9"/>
</mask>
<g mask="url(#mask0_84_94)">
<path d="M2 10.5C1.85833 10.5 1.73958 10.4521 1.64375 10.3562C1.54792 10.2604 1.5 10.1417 1.5 10V7C1.5 6.85833 1.54792 6.73958 1.64375 6.64375C1.73958 6.54792 1.85833 6.5 2 6.5C2.14167 6.5 2.26042 6.54792 2.35625 6.64375C2.45208 6.73958 2.5 6.85833 2.5 7V8.8L8.8 2.5H7C6.85833 2.5 6.73958 2.45208 6.64375 2.35625C6.54792 2.26042 6.5 2.14167 6.5 2C6.5 1.85833 6.54792 1.73958 6.64375 1.64375C6.73958 1.54792 6.85833 1.5 7 1.5H10C10.1417 1.5 10.2604 1.54792 10.3562 1.64375C10.4521 1.73958 10.5 1.85833 10.5 2V5C10.5 5.14167 10.4521 5.26042 10.3562 5.35625C10.2604 5.45208 10.1417 5.5 10 5.5C9.85833 5.5 9.73958 5.45208 9.64375 5.35625C9.54792 5.26042 9.5 5.14167 9.5 5V3.2L3.2 9.5H5C5.14167 9.5 5.26042 9.54792 5.35625 9.64375C5.45208 9.73958 5.5 9.85833 5.5 10C5.5 10.1417 5.45208 10.2604 5.35625 10.3562C5.26042 10.4521 5.14167 10.5 5 10.5H2Z" fill="white"/>
</g>
</svg>
