<svg xmlns="http://www.w3.org/2000/svg" width="64" height="64" fill="none" viewBox="0 0 64 64">
  <mask id="a" width="64" height="64" x="0" y="0" maskUnits="userSpaceOnUse" style="mask-type:alpha">
    <path fill="#D9D9D9" d="M0 0h64v64H0z"/>
  </mask>
  <g mask="url(#a)">
    <path fill="#fff" d="M12 47.18V20.266l-4.133-9.01a1.924 1.924 0 0 1-.041-1.534 1.936 1.936 0 0 1 1.04-1.128 1.986 1.986 0 0 1 1.534-.062c.527.185.903.526 1.128 1.021l4.851 10.58h31.242l4.851-10.58a1.938 1.938 0 0 1 1.128-1.04 1.821 1.821 0 0 1 1.533.082c.496.226.843.602 1.041 1.128a1.924 1.924 0 0 1-.04 1.534L52 20.267v26.912c0 1.33-.47 2.466-1.413 3.408C49.645 51.53 48.51 52 47.18 52H16.821c-1.33 0-2.466-.47-3.408-1.413C12.47 49.645 12 48.51 12 47.18ZM26.667 34h10.666c.568 0 1.043-.191 1.426-.575.383-.382.574-.857.574-1.425 0-.567-.191-1.043-.574-1.425-.383-.383-.858-.575-1.426-.575H26.667c-.568 0-1.043.192-1.426.575-.383.382-.574.858-.574 1.425 0 .568.191 1.043.574 1.425.383.384.858.575 1.426.575ZM16.82 48h30.358a.8.8 0 0 0 .59-.23.799.799 0 0 0 .231-.59V24.132H16V47.18a.8.8 0 0 0 .23.59.8.8 0 0 0 .59.231Z"/>
  </g>
</svg>
