<svg width="32" height="32" viewBox="0 0 32 32" fill="none" xmlns="http://www.w3.org/2000/svg">
<mask id="mask0_84_176" style="mask-type:alpha" maskUnits="userSpaceOnUse" x="0" y="0" width="32" height="32">
<rect width="32" height="32" fill="#D9D9D9"/>
</mask>
<g mask="url(#mask0_84_176)">
<path d="M8.41033 28.6667C7.73678 28.6667 7.16667 28.4334 6.7 27.9667C6.23333 27.5 6 26.9299 6 26.2564V11.077C6 10.4035 6.23333 9.83337 6.7 9.36671C7.16667 8.90004 7.73678 8.66671 8.41033 8.66671H11V8.33337C11 6.95226 11.488 5.7736 12.464 4.79737C13.4402 3.82137 14.6189 3.33337 16 3.33337C17.3811 3.33337 18.5598 3.82137 19.536 4.79737C20.512 5.7736 21 6.95226 21 8.33337V8.66671H23.5897C24.2632 8.66671 24.8333 8.90004 25.3 9.36671C25.7667 9.83337 26 10.4035 26 11.077V26.2564C26 26.9299 25.7667 27.5 25.3 27.9667C24.8333 28.4334 24.2632 28.6667 23.5897 28.6667H8.41033ZM8.41033 26.6667H23.5897C23.6923 26.6667 23.7863 26.6239 23.8717 26.5384C23.9572 26.453 24 26.359 24 26.2564V11.077C24 10.9744 23.9572 10.8804 23.8717 10.795C23.7863 10.7095 23.6923 10.6667 23.5897 10.6667H21V13.6667C21 13.9505 20.9042 14.188 20.7127 14.3794C20.5213 14.5709 20.2838 14.6667 20 14.6667C19.7162 14.6667 19.4787 14.5709 19.2873 14.3794C19.0958 14.188 19 13.9505 19 13.6667V10.6667H13V13.6667C13 13.9505 12.9042 14.188 12.7127 14.3794C12.5213 14.5709 12.2838 14.6667 12 14.6667C11.7162 14.6667 11.4787 14.5709 11.2873 14.3794C11.0958 14.188 11 13.9505 11 13.6667V10.6667H8.41033C8.30767 10.6667 8.21367 10.7095 8.12833 10.795C8.04278 10.8804 8 10.9744 8 11.077V26.2564C8 26.359 8.04278 26.453 8.12833 26.5384C8.21367 26.6239 8.30767 26.6667 8.41033 26.6667ZM13 8.66671H19V8.33337C19 7.4976 18.709 6.7886 18.127 6.20637C17.545 5.62437 16.836 5.33337 16 5.33337C15.164 5.33337 14.455 5.62437 13.873 6.20637C13.291 6.7886 13 7.4976 13 8.33337V8.66671Z" fill="white"/>
</g>
</svg>
