<!-- icon666.com - MILLIONS OF FREE VECTOR ICONS --><svg viewBox="0 0 24 24" xmlns="http://www.w3.org/2000/svg"><g id="shopping_chart" data-name="shopping chart"><path d="m23 8.27-2 7a1 1 0 0 1 -1 .73h-13a1 1 0 0 1 -1-.8l-1.39-7a.64.64 0 0 1 0-.07l-.43-2.13h-2.18a1 1 0 0 1 0-2h3a1 1 0 0 1 1 .8l.42 2.2h15.58a1 1 0 0 1 .8.4 1 1 0 0 1 .2.87zm-13.5 8.73a1.5 1.5 0 1 0 1.5 1.5 1.5 1.5 0 0 0 -1.5-1.5zm8 0a1.5 1.5 0 1 0 1.5 1.5 1.5 1.5 0 0 0 -1.5-1.5z" fill="#000000" style="fill: rgb(255, 255, 255);"></path></g></svg>