<svg xmlns="http://www.w3.org/2000/svg" width="55" height="55" fill="none" viewBox="0 0 55 55">
  <path fill="#fff" d="M27.5 0C42.688 0 55 12.312 55 27.5S42.688 55 27.5 55 0 42.688 0 27.5 12.312 0 27.5 0Zm-8.594 16.5c-.39 0-.716.132-.98.395a1.33 1.33 0 0 0-.395.98c0 .39.132.716.396.98.263.263.59.395.98.395h13.405l-.068.24-.224.997c-.148.665-.338 1.478-.567 2.44-.229.963-.418 1.778-.567 2.442l-.224.996a8.957 8.957 0 0 1-.172.757c-.068.252-.137.527-.206.825-.229.963-.418 1.776-.567 2.44l-.223.998-.07.24h-5.74a4.128 4.128 0 0 0-1.374-1.014 4.01 4.01 0 0 0-1.685-.361 4.01 4.01 0 0 0-1.685.361c-.527.24-.985.579-1.375 1.014h-2.818c-.39 0-.716.132-.98.395a1.33 1.33 0 0 0-.395.98c0 .39.132.716.396.98.263.263.59.395.98.395H16.5c0 1.146.401 2.12 1.203 2.922S19.48 38.5 20.625 38.5c1.146 0 2.12-.401 2.922-1.203s1.203-1.776 1.203-2.922h5.5c0 1.146.401 2.12 1.203 2.922S33.23 38.5 34.375 38.5c1.146 0 2.12-.401 2.922-1.203S38.5 35.52 38.5 34.375h1.615c.321 0 .608-.103.86-.31a1.36 1.36 0 0 0 .481-.79l.929-4.572c.069-.39.069-.773 0-1.151a2.366 2.366 0 0 0-.482-1.05L39.325 23.1a2.64 2.64 0 0 0-.963-.808A2.73 2.73 0 0 0 37.125 22h-2.647l.894-3.815a1.262 1.262 0 0 0-.241-1.17c-.275-.343-.642-.515-1.1-.515H18.906ZM20.625 33c.39 0 .716.132.98.395.263.264.395.59.395.98s-.132.716-.395.98a1.33 1.33 0 0 1-.98.395 1.33 1.33 0 0 1-.98-.395 1.33 1.33 0 0 1-.395-.98c0-.39.132-.716.395-.98a1.33 1.33 0 0 1 .98-.395Zm13.75 0c.39 0 .716.132.98.395.263.264.395.59.395.98s-.132.716-.395.98a1.33 1.33 0 0 1-.98.395 1.33 1.33 0 0 1-.98-.395 1.33 1.33 0 0 1-.395-.98c0-.39.132-.716.395-.98a1.33 1.33 0 0 1 .98-.395Zm-20.969-6.428c-.39 0-.716.131-.98.395-.263.263-.395.59-.395.98s.132.716.396.98c.263.263.59.395.98.395h4.812c.39 0 .716-.132.98-.395.263-.264.395-.59.395-.98s-.132-.717-.396-.98a1.33 1.33 0 0 0-.98-.395h-4.812Zm23.719-1.822 2.544 3.403-.138.722h-6.634l.962-4.125h3.266Zm-20.969-3.197c-.39 0-.716.132-.98.395-.263.264-.395.59-.395.98s.132.717.396.98c.263.264.59.395.98.395h6.187c.39 0 .716-.131.98-.395.263-.263.395-.59.395-.98s-.132-.716-.396-.98a1.33 1.33 0 0 0-.98-.395h-6.187Z"/>
</svg>
