<svg xmlns="http://www.w3.org/2000/svg" width="64" height="64" fill="none" viewBox="0 0 64 64">
  <mask id="a" width="64" height="64" x="0" y="0" maskUnits="userSpaceOnUse" style="mask-type:alpha">
    <path fill="#D9D9D9" d="M0 0h64v64H0z"/>
  </mask>
  <g mask="url(#a)">
    <path fill="#fff" d="m29.2 34.841-4.328-4.287a1.908 1.908 0 0 0-1.372-.567c-.545-.008-1.025.194-1.439.608-.386.386-.579.855-.579 1.405s.193 1.019.58 1.405l5.45 5.452c.483.481 1.045.722 1.688.722s1.205-.24 1.687-.722L41.94 27.805c.396-.397.592-.86.586-1.392-.005-.532-.2-1.005-.586-1.418-.414-.414-.89-.627-1.426-.641-.537-.014-1.012.186-1.426.6L29.2 34.841Zm-6.774 21.646-3.687-6.2-6.975-1.498a2.202 2.202 0 0 1-1.433-.943 2.34 2.34 0 0 1-.428-1.667l.682-7.174L5.84 33.58A2.226 2.226 0 0 1 5.226 32c0-.616.205-1.142.615-1.58l4.744-5.425-.682-7.174a2.34 2.34 0 0 1 .428-1.667 2.202 2.202 0 0 1 1.433-.943l6.975-1.498 3.687-6.2a2.441 2.441 0 0 1 1.313-1.077c.553-.192 1.116-.162 1.687.087L32 9.303l6.574-2.78c.571-.25 1.134-.279 1.687-.087.554.192.992.55 1.313 1.077l3.687 6.2 6.975 1.498a2.2 2.2 0 0 1 1.433.943c.358.513.5 1.068.428 1.667l-.682 7.174 4.744 5.426c.41.437.615.963.615 1.579s-.205 1.142-.615 1.58l-4.744 5.425.682 7.174a2.34 2.34 0 0 1-.428 1.667 2.202 2.202 0 0 1-1.433.943l-6.975 1.498-3.687 6.2a2.44 2.44 0 0 1-1.313 1.077c-.553.192-1.116.162-1.687-.087L32 54.697l-6.574 2.78c-.571.25-1.134.279-1.687.087a2.44 2.44 0 0 1-1.313-1.077ZM25.2 53.2l6.8-2.882 6.882 2.882 3.785-6.4L50 45.118l-.667-7.518 4.934-5.6-4.934-5.682L50 18.8l-7.333-1.6-3.867-6.4-6.8 2.882-6.882-2.882-3.785 6.4L14 18.8l.667 7.518L9.733 32l4.934 5.6L14 45.2l7.333 1.6 3.867 6.4Z"/>
  </g>
</svg>
