<!-- icon666.com - MILLIONS OF FREE VECTOR ICONS --><svg id="Layer_3" viewBox="0 0 64 64" xmlns="http://www.w3.org/2000/svg" data-name="Layer 3"><path d="m9 51h4v-11-11h-4z" fill="#000000" style="fill: rgb(255, 255, 255);"></path><path d="m20.707 31.293.293.293v-2.586h-2v2.586l.293-.293a1 1 0 0 1 1.414 0z" fill="#000000" style="fill: rgb(255, 255, 255);"></path><path d="m25 11h-2v5a1 1 0 0 1 -1.707.707l-1.293-1.293-1.293 1.293a1 1 0 0 1 -1.707-.707v-5h-2v10h10z" fill="#000000" style="fill: rgb(255, 255, 255);"></path><path d="m23 46a1 1 0 0 1 -1.707.707l-1.293-1.293-1.293 1.293a1 1 0 0 1 -1.707-.707v-5h-2v10h10v-10h-2z" fill="#000000" style="fill: rgb(255, 255, 255);"></path><path d="m20.707 43.293.293.293v-2.586h-2v2.586l.293-.293a1 1 0 0 1 1.414 0z" fill="#000000" style="fill: rgb(255, 255, 255);"></path><path d="m23 34a1 1 0 0 1 -1.707.707l-1.293-1.293-1.293 1.293a1 1 0 0 1 -1.707-.707v-5h-2v10h10v-10h-2z" fill="#000000" style="fill: rgb(255, 255, 255);"></path><path d="m20.707 13.293.293.293v-2.586h-2v2.586l.293-.293a1 1 0 0 1 1.414 0z" fill="#000000" style="fill: rgb(255, 255, 255);"></path><path d="m49 11h-2v5a1 1 0 0 1 -1.707.707l-1.293-1.293-1.293 1.293a1 1 0 0 1 -1.707-.707v-5h-2v10h10z" fill="#000000" style="fill: rgb(255, 255, 255);"></path><path d="m32.707 13.293.293.293v-2.586h-2v2.586l.293-.293a1 1 0 0 1 1.414 0z" fill="#000000" style="fill: rgb(255, 255, 255);"></path><path d="m37 11h-2v5a1 1 0 0 1 -1.707.707l-1.293-1.293-1.293 1.293a1 1 0 0 1 -1.707-.707v-5h-2v10h10z" fill="#000000" style="fill: rgb(255, 255, 255);"></path><path d="m44.707 13.293.293.293v-2.586h-2v2.586l.293-.293a1 1 0 0 1 1.414 0z" fill="#000000" style="fill: rgb(255, 255, 255);"></path><path d="m44.707 43.293.293.293v-2.586h-2v2.586l.293-.293a1 1 0 0 1 1.414 0z" fill="#000000" style="fill: rgb(255, 255, 255);"></path><path d="m47 34a1 1 0 0 1 -1.707.707l-1.293-1.293-1.293 1.293a1 1 0 0 1 -1.707-.707v-5h-2v10h10v-10h-2z" fill="#000000" style="fill: rgb(255, 255, 255);"></path><path d="m59 3a2 2 0 0 0 -2 2v17a1 1 0 0 1 -1 1h-48a1 1 0 0 1 -1-1v-17a2 2 0 0 0 -4 0v54a2 2 0 0 0 4 0v-1a1 1 0 0 1 1-1h48a1 1 0 0 1 1 1v1a2 2 0 0 0 4 0v-54a2 2 0 0 0 -2-2zm-2 49a1 1 0 0 1 -1 1h-48a1 1 0 0 1 -1-1v-24a1 1 0 0 1 1-1h48a1 1 0 0 1 1 1z" fill="#000000" style="fill: rgb(255, 255, 255);"></path><path d="m51 40v11h4v-22h-4z" fill="#000000" style="fill: rgb(255, 255, 255);"></path><path d="m47 46a1 1 0 0 1 -1.707.707l-1.293-1.293-1.293 1.293a1 1 0 0 1 -1.707-.707v-5h-2v10h10v-10h-2z" fill="#000000" style="fill: rgb(255, 255, 255);"></path><path d="m44.707 31.293.293.293v-2.586h-2v2.586l.293-.293a1 1 0 0 1 1.414 0z" fill="#000000" style="fill: rgb(255, 255, 255);"></path><path d="m32.707 31.293.293.293v-2.586h-2v2.586l.293-.293a1 1 0 0 1 1.414 0z" fill="#000000" style="fill: rgb(255, 255, 255);"></path><path d="m35 46a1 1 0 0 1 -1.707.707l-1.293-1.293-1.293 1.293a1 1 0 0 1 -1.707-.707v-5h-2v10h10v-10h-2z" fill="#000000" style="fill: rgb(255, 255, 255);"></path><path d="m32.707 43.293.293.293v-2.586h-2v2.586l.293-.293a1 1 0 0 1 1.414 0z" fill="#000000" style="fill: rgb(255, 255, 255);"></path><path d="m35 34a1 1 0 0 1 -1.707.707l-1.293-1.293-1.293 1.293a1 1 0 0 1 -1.707-.707v-5h-2v10h10v-10h-2z" fill="#000000" style="fill: rgb(255, 255, 255);"></path></svg>