<?xml version="1.0" encoding="UTF-8"?>
<!DOCTYPE svg PUBLIC "-//W3C//DTD SVG 1.1//EN" "http://www.w3.org/Graphics/SVG/1.1/DTD/svg11.dtd">
<!-- Creator: CorelDRAW 2020 (64-Bit) -->
<svg xmlns="http://www.w3.org/2000/svg" xml:space="preserve" width="40mm" height="40mm" version="1.1" style="shape-rendering:geometricPrecision; text-rendering:geometricPrecision; image-rendering:optimizeQuality; fill-rule:evenodd; clip-rule:evenodd"
viewBox="0 0 4000 4000"
 xmlns:xlink="http://www.w3.org/1999/xlink"
 xmlns:xodm="http://www.corel.com/coreldraw/odm/2003">
 <defs>
  <style type="text/css">
   <![CDATA[
    .str0 {stroke:white;stroke-width:105.83;stroke-miterlimit:22.9256}
    .fil0 {fill:none}
    .fil1 {fill:white;fill-rule:nonzero}
   ]]>
  </style>
 </defs>
 <g id="Слой_x0020_1">
  <metadata id="CorelCorpID_0Corel-Layer"/>
  <g id="_2356469752512">
   <path class="fil0 str0" d="M657.76 131.25l2721.84 0c314.04,0 570.97,256.93 570.97,570.97l0 2643c0,314.04 -256.93,570.97 -570.97,570.97l-2721.84 0c-314.04,0 -570.97,-256.93 -570.97,-570.97l0 -2643c0,-314.04 256.93,-570.97 570.97,-570.97zm251.65 349.94l2218.54 0c255.97,0 465.39,209.42 465.39,465.39l0 2154.28c0,255.97 -209.42,465.39 -465.39,465.39l-2218.54 0c-255.97,0 -465.39,-209.42 -465.39,-465.39l0 -2154.28c0,-255.97 209.42,-465.39 465.39,-465.39z"/>
   <g>
    <g>
     <path class="fil1" d="M1978.44 834.87c-230.71,100.67 -424.82,329.93 -458.05,541.38 -4.33,27.45 -7.71,39.01 -12.04,37.56 -3.37,-1.44 -29.38,-4.81 -57.8,-8.18 -178.21,-19.27 -376.16,49.61 -543.3,188.8 -63.09,52.5 -118,112.71 -118,128.6 0,24.09 13.97,106.45 26.49,156.06 54.43,214.33 173.39,380.5 342.93,478.27 22.16,12.53 39.98,23.6 39.98,24.09 0,0.48 -9.63,21.67 -21.19,46.23 -70.8,149.8 -74.17,349.68 -8.67,544.27 19.27,56.83 52.98,130.04 77.54,168.57 13.49,21.19 15.42,22.16 50.58,29.86 66.95,14.93 126.19,19.27 221.56,16.38 98.25,-2.89 147.86,-10.6 224.44,-34.68 90.55,-28.42 184.47,-83.81 248.53,-146.9l30.83 -30.35 30.82 30.35c86.22,84.77 206.15,144.01 347.27,171.95 63.58,12.52 249.98,12.52 317.89,-0.48 26.49,-4.82 52.98,-10.6 58.28,-13.01 19.75,-7.22 67.43,-99.7 98.74,-191.7 65.5,-191.69 62.61,-394.95 -7.23,-543.29 -12.52,-25.05 -22.15,-46.72 -22.15,-47.2 0,-0.97 17.82,-11.56 39.97,-24.09 59.73,-34.68 97.78,-64.54 148.35,-116.56 111.26,-115.11 186.4,-275.98 213.85,-458.04 11.08,-72.73 12.52,-66.95 -36.6,-118.97 -174.36,-182.54 -409.4,-280.32 -617.48,-258.16 -28.41,3.37 -54.42,6.74 -57.79,8.18 -4.34,1.45 -7.71,-10.11 -12.04,-37.56 -31.79,-202.3 -205.18,-416.15 -427.22,-526.45 -34.68,-17.33 -66.95,-31.3 -72.25,-31.3 -5.3,0 -26.01,7.22 -46.24,16.37l0 0zm85.73 161.36c63.58,37.57 101.63,66.95 152.2,115.59 76.1,73.69 118.97,139.2 147.39,224.45 19.74,60.21 26.49,112.71 23.12,184.95 -5.78,125.71 -41.43,239.86 -104.04,332.34l-20.23 29.86 -26.97 -24.08c-46.72,-41.42 -108.37,-68.88 -174.84,-77.06 -25.05,-3.37 -37.57,-7.23 -40.94,-12.53 -33.23,-54.9 -61.17,-90.55 -110.78,-140.16 -64.06,-64.54 -126.67,-109.33 -205.66,-148.34 -26.01,-12.53 -47.2,-25.53 -47.2,-28.9 0,-3.86 3.37,-24.57 7.22,-46.72 25.05,-145.46 112.22,-270.69 257.2,-371.35 30.83,-21.68 94.4,-59.73 101.63,-61.17 1.44,-0.48 20.23,10.11 41.9,23.12zm-594.83 556.78c135.34,23.6 293.8,115.6 375.68,218.19 15.41,19.26 27.94,37.08 27.94,39.01 0,2.41 -13.01,12.04 -28.42,21.67 -43.83,26.98 -93.44,83.33 -117.52,132.94l-20.23 41.9 -36.13 8.67c-117.04,26.98 -240.34,99.7 -340.04,199.89l-44.31 44.31 -39.98 -20.23c-128.6,-64.06 -221.56,-181.58 -276.46,-348.23 -8.67,-27.45 -19.75,-68.39 -23.6,-90.07 -9.16,-47.2 -11.56,-42.38 50.09,-93.92 146.42,-121.86 324.63,-180.14 472.98,-154.13l0 0zm1299.96 9.15c110.78,27.94 221.56,89.59 309.22,171.95l28.42 26.01 -10.12 47.2c-26.49,125.71 -81.88,241.31 -155.57,323.19 -77.06,86.21 -189.77,143.05 -325.59,164.72 -91.03,13.97 -222.52,4.34 -290.92,-21.67l-13 -4.82 11.08 -25.53c25.52,-58.28 34.19,-139.19 21.67,-202.29l-5.3 -26.49 29.86 -35.64c78.99,-93.44 137.75,-234.08 155.09,-367.5 2.89,-24.08 6.75,-45.76 8.67,-47.68 1.93,-2.41 19.75,-7.23 39.02,-11.08 52.01,-9.63 139.19,-5.78 197.47,9.63l0 0zm-698.87 369.43c119.45,26.97 173.88,174.83 103.07,282.24 -46.71,71.77 -147.86,98.74 -228.78,60.69 -37.57,-17.34 -71.76,-51.06 -90.06,-87.66 -11.56,-24.08 -13.01,-32.27 -13.01,-77.55 0,-44.79 1.45,-53.94 13.01,-78.02 25.04,-53.95 82.84,-96.81 140.64,-105 26.01,-3.37 39.97,-2.41 75.13,5.3zm-368.94 250.93c8.19,50.58 51.54,125.23 96.81,167.14l23.12 21.19 0.96 96.81c0.97,84.77 2.41,103.07 13.01,147.38 15.89,65.02 41.9,135.35 71.76,192.18 13.01,25.04 23.6,48.16 23.6,51.54 0,10.59 -79.95,80.91 -119.93,105 -45.75,27.45 -109.33,52.5 -170.98,66.94 -37.57,8.67 -59.24,10.12 -147.39,10.6 -134.86,0 -135.82,0 -153.64,-35.16 -32.27,-64.06 -65.02,-177.73 -72.73,-254.31 -8.67,-81.88 6.26,-174.36 40.46,-253.35 28.9,-66.95 63.58,-117.04 123.3,-177.73 55.87,-56.35 101.15,-90.54 158.94,-119.93 35.65,-17.82 102.11,-43.34 106.45,-40.45 1.93,0.96 4.33,11.07 6.26,22.15l0 0zm626.14 242.27c64.54,16.38 110.3,21.68 187.36,21.68 59.25,0 121.86,-6.26 174.36,-16.86 13.97,-2.89 15.41,-1.93 31.79,29.86 43.83,81.88 59.72,154.61 55.87,259.13 -2.89,80.91 -10.11,119.45 -37.09,200.36 -25.52,77.07 -44.79,114.15 -61.65,118.49 -7.22,2.41 -60.69,3.85 -118.97,3.85 -84.77,0 -114.15,-1.92 -145.94,-8.67 -151.71,-33.23 -259.6,-105.48 -339.56,-227.34 -69.35,-105.96 -109.33,-226.85 -109.33,-331.85l0 -39.01 59.24 0c51.54,0 64.06,-1.93 99.7,-13.49 22.64,-7.23 50.58,-19.27 62.62,-26.97l21.19 -13.49 38.05 16.38c20.71,9.15 57.8,21.67 82.36,27.93l0 0z"/>
    </g>
   </g>
   <g>
    <path class="fil1" d="M2872.87 695.81c-17.76,8.35 -24.75,20.19 -24.17,41.46 0.49,17.91 9.79,29.13 109.28,131.69 59.58,61.97 114.43,114.7 121.79,116.86 34.02,10.59 66.82,-23.04 54.69,-55.68 -3.04,-8.57 -54.63,-65.56 -114.2,-126.98 -112.76,-115.15 -120.22,-120.67 -147.39,-107.34l0 -0.01z"/>
    <path class="fil1" d="M2680.68 779.99c-19.97,9.88 -27.76,33.4 -17.6,55.29 4.18,9.21 121.7,134.17 261.65,277.35 238.87,246.27 255.02,261.28 273.6,262.49 30.41,1.97 46.71,-18.76 43.44,-55.85 -0.9,-12.35 -491.49,-522.47 -516.62,-536.95 -18.84,-10.72 -26.16,-11.2 -44.47,-2.33l0 0z"/>
    <path class="fil1" d="M3176.22 997.67c-19.51,5.99 -33.07,24.11 -32.54,43.7 0.48,17.35 7.48,26.74 63,83.99 51.48,53.06 65.29,64.58 79.36,65.49 33.79,2.19 57.16,-27.02 45.09,-57.41 -7.25,-18.35 -99.87,-116.56 -122.15,-129.74 -16.56,-9.45 -19.39,-10.19 -32.76,-6.03z"/>
   </g>
  </g>
 </g>
</svg>
